GRF
version=1
nRows=34
nColumns=19
inDegrees=no
endheader
time	plate1_ground_force_vx	plate1_ground_force_vy	plate1_ground_force_vz	plate1_ground_force_px	plate1_ground_force_py	plate1_ground_force_pz	plate1_ground_torque_x	plate1_ground_torque_y	plate1_ground_torque_z	plate2_ground_force_vx	plate2_ground_force_vy	plate2_ground_force_vz	plate2_ground_force_px	plate2_ground_force_py	plate2_ground_force_pz	plate2_ground_torque_x	plate2_ground_torque_y	plate2_ground_torque_z
      0.00000000	     58.06785882	    407.90802387	      7.68302527	      1.02603955	      0.00000000	      0.17068434	     -0.00000000	      3.16281851	      0.00000000	    -61.50995662	    456.43341522	     -5.47290354	      1.43829025	      0.00000000	      0.20469589	      0.00000000	     -3.70689858	      0.00000000
      0.01000000	     58.07286566	    407.80219749	      7.53762122	      1.02604830	      0.00000000	      0.17074004	     -0.00000000	      3.15192335	      0.00000000	    -61.54928022	    455.76028994	     -5.46758319	      1.43792926	      0.00000000	      0.20468208	      0.00000000	     -3.69355862	      0.00000000
      0.02000000	     58.07233711	    407.67595302	      7.42740004	      1.02611289	      0.00000000	      0.17081416	     -0.00000000	      3.13671092	      0.00000000	    -61.56691996	    455.16015170	     -5.41944380	      1.43764530	      0.00000000	      0.20466233	      0.00000000	     -3.68067149	      0.00000000
      0.03000000	     58.06602557	    407.55953249	      7.36011629	      1.02621636	      0.00000000	      0.17090049	     -0.00000000	      3.11897869	      0.00000000	    -61.56154612	    454.60374748	     -5.32813650	      1.43743285	      0.00000000	      0.20462991	      0.00000000	     -3.66991758	      0.00000000
      0.04000000	     58.05676975	    407.48117545	      7.33971461	      1.02633836	      0.00000000	      0.17099026	     -0.00000000	      3.10010858	      0.00000000	    -61.53378171	    454.07436371	     -5.20053662	      1.43728473	      0.00000000	      0.20458238	      0.00000000	     -3.66241256	      0.00000000
      0.05000000	     58.04942020	    407.46345647	      7.36544857	      1.02645754	      0.00000000	      0.17107401	     -0.00000000	      3.08102270	      0.00000000	    -61.48618818	    453.57215296	     -5.04994567	      1.43719278	      0.00000000	      0.20452218	      0.00000000	     -3.65854240	      0.00000000
      0.06000000	     58.04928956	    407.52256708	      7.43178015	      1.02655386	      0.00000000	      0.17114337	     -0.00000000	      3.06233063	      0.00000000	    -61.42332676	    453.11388793	     -4.89383677	      1.43714829	      0.00000000	      0.20445642	      0.00000000	     -3.65793679	      0.00000000
      0.07000000	     58.06066264	    407.66967825	      7.52901610	      1.02661069	      0.00000000	      0.17119252	     -0.00000000	      3.04456402	      0.00000000	    -61.35185103	    452.72776888	     -4.75076884	      1.43714206	      0.00000000	      0.20439581	     -0.00000000	     -3.65960325	     -0.00000000
      0.08000000	     58.08586591	    407.91242699	      7.64438530	      1.02661702	      0.00000000	      0.17121934	     -0.00000000	      3.02835367	      0.00000000	    -61.28036625	    452.44422217	     -4.63721565	      1.43716451	      0.00000000	      0.20435287	     -0.00000000	     -3.66220133	     -0.00000000
      0.09000000	     58.12511923	    408.25447755	      7.76326309	      1.02656952	      0.00000000	      0.17122611	     -0.00000000	      3.01443960	      0.00000000	    -61.21865516	    452.28473666	     -4.56484497	      1.43720592	      0.00000000	      0.20433945	     -0.00000000	     -3.66440776	     -0.00000000
      0.10000000	     58.17701661	    408.69206098	      7.87048028	      1.02647389	      0.00000000	      0.17121934	     -0.00000000	      3.00349346	      0.00000000	    -61.17598527	    452.25191989	     -4.53859840	      1.43725707	      0.00000000	      0.20436396	     -0.00000000	     -3.66529910	     -0.00000000
      0.11000000	     58.23914019	    409.20817545	      7.95188552	      1.02634434	      0.00000000	      0.17120873	     -0.00000000	      2.99584217	      0.00000000	    -61.15869736	    452.32485015	     -4.55595550	      1.43731010	      0.00000000	      0.20442888	     -0.00000000	     -3.66464112	     -0.00000000
      0.12000000	     58.30821301	    409.76725051	      7.99634652	      1.02620046	      0.00000000	      0.17120489	     -0.00000000	      2.99126182	      0.00000000	    -61.16795988	    452.46277572	     -4.60775154	      1.43735927	      0.00000000	      0.20452961	     -0.00000000	     -3.66295502	     -0.00000000
      0.13000000	     58.37963271	    410.31440476	      7.99807208	      1.02606209	      0.00000000	      0.17121670	     -0.00000000	      2.98899040	      0.00000000	    -61.19890601	    452.61632010	     -4.68057725	      1.43740140	      0.00000000	      0.20465564	     -0.00000000	     -3.66129355	     -0.00000000
      0.14000000	     58.44705312	    410.78260483	      7.95856409	      1.02594423	      0.00000000	      0.17124903	     -0.00000000	      2.98797072	      0.00000000	    -61.24190743	    452.74108133	     -4.76023750	      1.43743606	      0.00000000	      0.20479392	     -0.00000000	     -3.66079757	     -0.00000000
      0.15000000	     58.50306303	    411.10774274	      7.88707806	      1.02585394	      0.00000000	      0.17130166	     -0.00000000	      2.98718517	      0.00000000	    -61.28569948	    452.80760747	     -4.83526337	      1.43746549	      0.00000000	      0.20493320	     -0.00000000	     -3.66222496	     -0.00000000
      0.16000000	     58.54129783	    411.24718106	      7.79877807	      1.02579031	      0.00000000	      0.17136956	      0.00000000	      2.98590703	      0.00000000	    -61.32113014	    452.80468042	     -4.89927699	      1.43749423	      0.00000000	      0.20506759	     -0.00000000	     -3.66566100	     -0.00000000
      0.17000000	     58.55897199	    411.19410040	      7.71088234	      1.02574697	      0.00000000	      0.17144439	      0.00000000	      2.98378513	      0.00000000	    -61.34400375	    452.73671913	     -4.95130623	      1.43752762	      0.00000000	      0.20519765	     -0.00000000	     -3.67052017	     -0.00000000
      0.18000000	     58.55810766	    410.98050260	      7.63825433	      1.02571583	      0.00000000	      0.17151663	      0.00000000	      2.98080543	      0.00000000	    -61.35595556	    452.61819764	     -4.99397629	      1.43756921	      0.00000000	      0.20532895	     -0.00000000	     -3.67579976	     -0.00000000
      0.19000000	     58.54444747	    410.66675914	      7.59019418	      1.02569073	      0.00000000	      0.17157817	      0.00000000	      2.97722655	      0.00000000	    -61.36323814	    452.46795337	     -5.03050841	      1.43761815	      0.00000000	      0.20546879	     -0.00000000	     -3.68043583	     -0.00000000
      0.20000000	     58.52467210	    410.32271883	      7.56944741	      1.02566948	      0.00000000	      0.17162475	      0.00000000	      2.97354118	      0.00000000	    -61.37418193	    452.30522276	     -5.06202884	      1.43766881	      0.00000000	      0.20562281	     -0.00000000	     -3.68359868	     -0.00000000
      0.21000000	     58.50376423	    410.00973728	      7.57330912	      1.02565357	      0.00000000	      0.17165783	      0.00000000	      2.97043559	      0.00000000	    -61.39643838	    452.14790203	     -5.08645398	      1.43771369	      0.00000000	      0.20579276	      0.00000000	     -3.68483355	     -0.00000000
      0.22000000	     58.48422797	    409.77102297	      7.59592160	      1.02564527	      0.00000000	      0.17168477	      0.00000000	      2.96868905	      0.00000000	    -61.43486935	    452.01213147	     -5.09931959	      1.43774856	      0.00000000	      0.20597619	      0.00000000	     -3.68404766	     -0.00000000
      0.23000000	     58.46755667	    409.63093919	      7.63070268	      1.02564407	      0.00000000	      0.17171693	      0.00000000	      2.96899550	      0.00000000	    -61.49047271	    451.91144891	     -5.09592052	      1.43777659	      0.00000000	      0.20616806	      0.00000000	     -3.68141599	     -0.00000000
      0.24000000	     58.45681743	    409.59821674	      7.67209900	      1.02564482	      0.00000000	      0.17176578	      0.00000000	      2.97175617	      0.00000000	    -61.56040248	    451.85428708	     -5.07359429	      1.43780837	      0.00000000	      0.20636344	      0.00000000	     -3.67729883	     -0.00000000
      0.25000000	     58.45845866	    409.66809213	      7.71627031	      1.02563904	      0.00000000	      0.17183864	      0.00000000	      2.97692371	      0.00000000	    -61.63898814	    451.84044924	     -5.03314224	      1.43785740	      0.00000000	      0.20655956	      0.00000000	     -3.67222491	     -0.00000000
      0.26000000	     58.48185159	    409.82297679	      7.76075686	      1.02561815	      0.00000000	      0.17193616	      0.00000000	      2.98396335	      0.00000000	    -61.71947154	    451.85902355	     -4.97900514	      1.43793356	      0.00000000	      0.20675608	      0.00000000	     -3.66691302	     -0.00000000
      0.27000000	     58.53639522	    410.03491007	      7.80358094	      1.02557641	      0.00000000	      0.17205273	      0.00000000	      2.99195811	      0.00000000	    -61.79588587	    451.89029908	     -4.91843364	      1.43803842	      0.00000000	      0.20695333	      0.00000000	     -3.66223975	     -0.00000000
      0.28000000	     58.62750960	    410.27216061	      7.84242632	      1.02551171	      0.00000000	      0.17217967	      0.00000000	      2.99984340	      0.00000000	    -61.86432439	    451.91210393	     -4.86017437	      1.43816502	      0.00000000	      0.20714983	      0.00000000	     -3.65907724	     -0.00000000
      0.29000000	     58.75364335	    410.50860080	      7.87439105	      1.02542489	      0.00000000	      0.17230898	      0.00000000	      3.00670503	      0.00000000	    -61.92307285	    451.90792657	     -4.81311460	      1.43830183	      0.00000000	      0.20734120	      0.00000000	     -3.65803098	     -0.00000000
      0.30000000	     58.90599597	    410.73193703	      7.89639274	      1.02531912	      0.00000000	      0.17243586	      0.00000000	      3.01202362	      0.00000000	    -61.97170781	    451.87258442	     -4.78510426	      1.43843797	      0.00000000	      0.20752145	      0.00000000	     -3.65921987	     -0.00000000
      0.31000000	     59.07121308	    410.94720463	      7.90590968	      1.02519949	      0.00000000	      0.17255889	      0.00000000	      3.01574419	      0.00000000	    -62.00991953	    451.81255158	     -4.78201560	      1.43856638	      0.00000000	      0.20768591	      0.00000000	     -3.66225447	     -0.00000000
      0.32000000	     59.23573849	    411.17379537	      7.90164186	      1.02507220	      0.00000000	      0.17267892	      0.00000000	      3.01813878	      0.00000000	    -62.03701660	    451.74141087	     -4.80707613	      1.43868385	      0.00000000	      0.20783406	     -0.00000000	     -3.66645293	     -0.00000000
      0.33000000	     59.38976327	    411.43633974	      7.88386897	      1.02494254	      0.00000000	      0.17279794	      0.00000000	      3.01956994	      0.00000000	    -62.05259607	    451.67353716	     -4.86055948	      1.43878906	      0.00000000	      0.20797063	     -0.00000000	     -3.67117059	     -0.00000000
